<?xml version="1.0" encoding="utf-8"?>
<!-- Generator: Adobe Illustrator 22.1.0, SVG Export Plug-In . SVG Version: 6.00 Build 0)  -->
<svg version="1.1" id="Layer_1" xmlns="http://www.w3.org/2000/svg" xmlns:xlink="http://www.w3.org/1999/xlink" x="0px" y="0px"
	 width="196.4px" height="59px" viewBox="0 0 196.4 59" style="enable-background:new 0 0 196.4 59;" xml:space="preserve">
<style type="text/css">
	.st0{fill:#FAC008;}
	.st1{fill:#A44324;}
	.st2{fill:#3E7D3B;}
	.st3{fill:url(#SVGID_1_);}
	.st4{fill:url(#SVGID_2_);}
	.st5{fill:#333333;}
</style>
<g>
	<g>
		<path class="st0" d="M184.9,43.4L184.9,43.4c-0.3-0.1-0.3-0.1-0.5-0.1l0,0c-0.1,0-0.2,0-0.4-0.1c0.1,0,0.1,0,0.1,0.1
			c-0.1,0-0.2,0-0.4,0c0,0,0,0,0.1,0c0.1-0.1-0.1-0.1-0.3,0c-0.1,0-0.1,0-0.2,0c0,0,0,0,0.1,0h-0.3c-2.8-0.2-6.7,0-5.8-0.1
			c2.8-0.2-14.5-0.1-16.6,0c-1.2-0.1-2.9,0.1-3.8,0l0,0c-2.2,0-5.1,0-8.3,0.1c-0.4-0.1-0.7-0.2-0.6-0.1l0.1,0.1
			c-10.5,0.1-23.8,0.2-24.3,0.2c-0.1,0-0.2,0-0.2,0l0,0l0,0c-0.5,0-1.1,0-1.7,0c-0.1,0-0.1-0.1,0.2-0.1c-1.4,0.1-2.1-0.1-3,0.1H119
			c-0.1-0.1,0.3-0.1,0.2-0.2c-0.1,0-0.4,0.1-0.6,0c-0.1-0.1,0.2-0.1,0.4-0.1c-0.8,0-1.3,0.1-1.5,0.2c-1.7,0-3.3,0-4.1,0
			c-2.2,0-5.6-0.2-7.8-0.2c-1.7,0-3.4,0-5.1,0c-0.5-0.1-0.6,0-0.7,0c-0.2,0-0.4,0-0.6,0c0,0-0.2-0.1-0.5-0.1
			c-0.2-0.1-1.1,0.1-1.9,0.2c-0.3,0-0.6,0-1.1,0c-0.2,0-0.5,0-0.6-0.1c0.1,0,0.1,0,0.2,0.1c-0.2,0-0.4,0-0.6,0c0.2,0,0.2,0,0.2-0.1
			c-0.2,0-0.3,0-0.3,0.1c-0.3,0-0.6,0-0.9,0c-0.7-0.1-1.4-0.1-1.9,0c-0.1,0-0.2,0-0.2-0.1c-0.6,0.1-1.8,0.1-2.4,0.2
			c-0.1,0-0.2,0-0.3,0c-0.8-0.4-4.1,0.3-4.1-0.2h-2.1l0.1-0.1c-1.4,0-1.9,0.1-2.3,0.2c-0.3,0-0.1-0.1-0.1-0.1
			c-2-0.1-2.2-0.1-3.8,0.2l-0.2-0.2c-0.4,0.1-2.8-0.3-4.8-0.1c0,0,0.1,0,0.2-0.1c-2.2,0.2-5.2-0.4-6,0.1l-1.4,0.6
			c-0.1,0-0.3,0-0.4,0c-0.1,0-0.3,0-0.4,0c-0.7,0-1.8,0-1.8-0.1c-3.1,0-6.1-0.1-9-0.2c0,0,0-0.1-0.2-0.1c-1.1-0.2-3.3,0-3.4,0
			c-0.1,0-0.1,0-0.2,0.1h-0.1H49l0,0c-0.4,0.1-0.6,0.1-1.6,0.1c-0.6,0-0.3-0.1-0.6-0.2c0,0-0.1,0-0.4,0h-1.5l0.6,0.2
			c-0.6,0.1-1.3,0-0.9,0.1h-0.1c-1.4-0.1-5.4-0.1-5.9-0.1c-0.9,0-1.8,0-3,0c0.1,0,0.1,0,0.2,0.1c-0.2,0-0.5,0-0.7,0
			c0,0-0.1,0-0.1-0.1c1.6,0,2.8-0.1,2.8-0.2c0,0,0.1-0.2-0.4-0.2c-2.1-0.2-7.1-0.2-7.4-0.2c-0.4,0-0.7,0.1-0.7,0.3
			c0,0.1,0.1,0.1,0.1,0.2c-1.1,0-2.3,0-3.5-0.1c0.1,0,0.2-0.1,0.2-0.2c0-0.1-0.3-0.3-0.7-0.3s-0.7,0.1-0.7,0.3c0,0.1,0,0.1,0.1,0.1
			c-0.4,0-0.8,0-1.3,0c0,0.1,0.4,0.1-0.1,0.2l-1.3-0.3c-0.5,0-0.4,0.3-1.4,0.1c0.1,0,0.3,0.1,0,0.1C16.1,43,11.1,43.5,6.3,43
			c0.5,0.1,0.3,0.1-0.1,0.1c-0.1,0-0.3,0-0.6,0c0.1,0,0.3,0,0.4,0c0.3,0,0,0.1,0,0.2l-2-0.2c-0.4,0.2-2.2,0-2.4,0.2h0.6
			c-0.1,0.2-0.2,0.3-0.1,0.4c-0.9,0-1.6,0-1.9,0.1c0,0.2-0.5,0.7,0.1,1.3c1.7,0.5,5.3,0.1,6.6,0.1c3,0,5.4-0.4,7.7-0.4
			c0.8,0,5.4,0.5,6.2,0.6c3.2,0,2.8,0,6,0c3.5,0,7.3-0.3,10.8-0.3c5.2,0,9.3-0.1,14.5-0.1c0.9,0,1.9,0,2.9,0c0.3,0,0.6,0.1,1.1,0
			c-0.4,0-0.6,0-0.8,0c0.5,0,1.2,0,1.7,0c-0.1,0-0.2,0-0.2,0c-0.1,0-1.1,0.2-1.1,0.4s1,0.1,1.2,0.1c0.2,0.1,4.2,0.1,4.2-0.4
			c0,0-0.5,0-0.9-0.1c0.3,0,0.2-0.1,0-0.1c1.3,0,2.6,0,3.8,0l0,0L63.9,45c0.2,0,0.3,0,0.4,0c0.8,0,1.6,0,2.4,0h-0.1
			c0.6,0.1,1.6,0,2.1,0c-0.1,0-0.3,0-0.4,0c0.8,0,1.6,0,2.4,0c-0.1,0-0.3,0.1-0.6,0.1l1.2-0.1c0.2,0,0.5,0,0.7,0
			c0.2,0.1,0.6,0.1,0.4,0.1c0.8,0.1,2-0.2,3.1-0.2l0,0c0.2,0,0.3,0,0.4,0h-0.1c0.5,0,0.9,0,1.5,0c0.3,0,0.6,0,0.9,0l0,0l0,0
			c0.4,0,0.7,0,1.2,0c0.2,0,0.4,0,0.5,0l0.7,0.2c0.6,0,0.2-0.1,0-0.2c0.5,0,0.9,0,1.5,0c0,0,0,0.1,0.1,0.1c0.2,0,0.4-0.1,0.7-0.1
			c0.7,0,1.5,0,2.2,0l0,0c-0.4,0-0.7,0-1.1,0l0.9,0.1c-1.1,0.2-1.9,0.1-1.1,0.3c0.1-0.4,3.5,0,3.6-0.5l0.6,0.1c-0.2,0-0.2,0-0.4,0
			c0.7,0.1,0.9,0,1.3-0.2c0.5,0,1.2,0,1.7,0c0,0,0,0-0.1,0.1l0.6-0.1c0.2,0,0.5,0,0.7,0c0,0-0.1,0-0.3,0h1.4c0.1,0,0.3,0,0.4,0l0,0
			l0,0c0.3,0,0.6,0,0.9,0c0.8,0.4,0.8-0.1,2.7,0.1L96,44.9c0.6,0.2,1.4,0.2,2.4,0.3c-0.2-0.1-2.1-0.4-1.1-0.5c0.3,0,0.7,0,1.3,0
			c0,0.2,0.5,0.1,1.3,0.1V45c0.7-0.1,0.7-0.2,1.2-0.3c0.8,0,1.1,0.2,1.2,0.3c-0.1,0-0.1,0-0.2,0l0.6,0.1l0.1-0.1h-0.1
			c0.6,0-1.1-0.3,0.4-0.3c1.1,0.1,1.8,0,3-0.1c0.2,0,0.3,0,0.5,0c0.3,0.1-0.3,0.1-0.1,0.2l0.6-0.2h0.1c0.1,0,0.1,0.1,0,0.1
			c0.2,0,0.2,0,0.3-0.1c1.2,0,2.5,0,3.7,0l-0.1,0.1c0.4,0,0.6-0.1,0.8-0.1c1.9,0,3.5,0,4.6,0l0,0l0,0c0.3,0,0.6,0,0.8,0
			c0,0,0.1,0,0.2,0l0.8,0.1c0.1,0,0.2,0,0.3,0c0.5,0,1.2,0,1.9,0c0,0,0,0-0.1,0h0.2c2,0,4.2,0.1,5.1,0.1c0.1,0,2.7,0,6.9-0.1l0,0
			l0,0c0.8,0,1.7,0,2.5,0c-0.1,0-0.2,0-0.3,0c0.4,0,0.8,0.1,1.7,0c-0.1,0-0.1,0-0.2-0.1c0.4,0,0.8,0,1.4,0c0.1,0,0.2,0,0.3,0.1
			l-0.2,0.1c0.3-0.1,0.5-0.1,0.7-0.1l0,0h0.1c0.2,0,0.3,0,0.5,0l-0.1-0.1c0.3,0,0.6,0,1.1,0c0.1,0.1,0.2,0.1,0.3,0.1
			c-0.1-0.1,0.9,0,1.5,0c0,0.1,0,0.2,0.1,0.2c0.2,0.1,3.8,0.2,3.8-0.1c0,0,0.2-0.2-0.1-0.3c1.4,0,0.4,0,1.3,0
			c-0.3,0.1-0.6,0.2-0.8,0.2c0.6,0.1,0.2,0.1,1.2,0.1c0.3,0.1-0.5,0.2-0.8,0.2l2.3,0.1c0-0.1,0.3-0.1,0.6-0.2
			c3.2,0.1,10.1,0.3,10.3,0.1c0,0,0.4-0.2,0.2-0.5c0.1,0,0.2,0,0.3,0v-0.1c0.9,0,0.9,0,2.1,0h-0.7c0,0-0.1,0.2-0.1,0.3
			c-0.1,0-0.2,0-0.3-0.1c0,0,0.1,0.1,0.3,0.1l0,0c0,0.1,0,0.2,0,0.2c0,0.1,0.7,0.1,0.8-0.1c0,0,0.1-0.2,0.1-0.5c0.8,0,1.7,0,2.5,0
			c0.5,0,0.9,0,1.5,0c0,0,0,0-0.1,0.1c0.1,0,0.2,0,0.3-0.1c0.3,0,0.5,0,0.8,0c0.3,0.1-1.3,0-0.6,0.2c0-0.1,0.7-0.1,1.4-0.2
			c2.2,0,4.2,0.1,6.1,0.2c-0.1,0-0.1,0,0.5,0c0,0,0,0,0.1,0c3,0.1,5.7,0.2,8,0.1C185.5,44.5,186.4,43.7,184.9,43.4z M48.9,43.4
			C48.9,43.4,48.9,43.5,48.9,43.4C48.8,43.5,48.8,43.4,48.9,43.4z M30.5,43.5c0.1,0,0.1,0,0.2,0h0.1c0,0,0,0-0.1,0
			C30.7,43.6,30.6,43.5,30.5,43.5z M99.4,44.7c0.1-0.1,0.2-0.1,0.3-0.1h0.1c0.1,0,0.3,0,0.5,0.1C100.1,44.7,99.6,44.8,99.4,44.7z
			 M138.3,44.5c0.1,0,0.1,0,0.2,0H138.3C138.3,44.6,138.3,44.6,138.3,44.5z M141.7,44.5c0.1,0,0.3,0,0.4,0c0,0,0,0,0,0.1L141.7,44.5
			z"/>
		<path class="st0" d="M78.2,44.9L77.8,45C78.5,45,78.2,44.9,78.2,44.9z"/>
		<path class="st0" d="M48.3,43.4h-0.2C47.9,43.5,47.8,43.5,48.3,43.4z"/>
		<polygon class="st0" points="3,43.1 2.3,43 2.7,43.2 		"/>
		<path class="st0" d="M1.1,43.5l-0.2-0.2l-0.4,0.2C0.6,43.5,1,43.5,1.1,43.5z"/>
		<polygon class="st0" points="92.9,44.9 93,44.9 92.7,44.7 		"/>
		<path class="st0" d="M84.3,45.3c0.3,0,0.7,0,1.2,0C84.8,45.3,84.2,44.9,84.3,45.3z"/>
	</g>
	<g>
		<path class="st1" d="M38.1,38.1c-5.4-1.2-10.9-3.7-15.6-9.4L8.9,11.2v18.9c0,2,0.2,3.6,0.6,4.8c0.3,0.8,0.6,1.5,1.2,2.2H0.9
			c1.2-1.8,1.8-4.2,1.8-7V8.5c0-2.3-0.2-4.1-0.7-5.4c-0.4-0.9-1-1.9-1.8-3h11.9l20,25.5V7.2c0-2-0.2-3.5-0.5-4.5
			c-0.2-0.8-0.7-1.7-1.3-2.5H40c-0.5,0.7-0.9,1.5-1.2,2.2c-0.4,1.2-0.6,2.8-0.6,4.8v30.9H38.1z"/>
		<path class="st1" d="M53.4,37.9c-2.5,0-4.5-0.6-6.1-1.8c-1.8-1.3-2.6-3.5-2.6-6.6v-11c0-3.6-0.2-4.7-0.4-5.2
			c-0.1-0.5-0.4-1-0.9-1.6h7.3c1,0,2-0.2,3.1-0.5v14.7c0,2.6,0.2,4.4,0.6,5.4s1.4,2.1,3.7,2.1c2,0,4.3-1,4.3-5.7v-9.2
			c0-2.7-0.1-4.4-0.4-5.2c-0.1-0.5-0.4-1-0.8-1.6h7.1c1,0,2-0.2,3-0.5v19.1c0,2.7,0.1,4.4,0.3,5.2c0.1,0.5,0.4,1,0.8,1.6h-9.7v-4.4
			l-1.4,1.5C59.1,36.7,56.5,37.9,53.4,37.9z"/>
		<path class="st2" d="M76.3,37.1c0.6-0.7,1-1.6,1.2-2.5c0.2-0.7,0.2-2.1,0.2-4.4V7c0-2.9-0.3-4.8-0.8-5.8c-0.2-0.4-0.4-0.7-0.6-1
			h16.8c3.2,0,5.8,0.8,7.7,2.4c1.9,1.6,2.8,3.5,2.8,6c0,3.3-1.9,5.5-5.8,6.8l-2.9,1l3,0.6c2.6,0.5,4.6,1.5,6,3.2
			c1.4,1.6,2.1,3.7,2.1,6.1c0,3.3-1.2,6-3.7,8.1c-2.2,1.9-5.5,2.9-9.6,2.9H76.3V37.1z M89.3,18.6c-0.6,0-1.1,0-1.5,0H87v13.6
			l0.4,0.2c0.9,0.5,2,0.8,3.2,0.8c2,0,3.5-0.7,4.6-2.1c1.1-1.4,1.6-3.2,1.6-5.5C96.9,22.4,95.6,18.6,89.3,18.6z M89.7,4.1
			c-0.6,0-1.3,0.1-2.1,0.4L87,4.7v10.2l0.6,0.2c0.5,0.2,1,0.2,1.4,0.2c1.7,0,3.1-0.6,4.1-1.7c1.1-1.1,1.6-2.5,1.6-4.2
			c0-1.5-0.5-2.7-1.4-3.7C92.3,4.6,91.1,4.1,89.7,4.1z"/>
		<path class="st2" d="M127,37.9c-5.3,0-9.6-1.2-12.5-3.6c-3-2.4-4.4-5.6-4.4-9.8c0-4,1.4-7.2,4.3-9.7s6.7-3.8,11.3-3.8
			c3,0,5.6,0.6,7.8,1.9c2.1,1.2,3.5,3,4.4,5.3c0.5,1.4,0.9,3.3,1.1,5.5h-19.3v0.8c0,2.2,0.5,4.1,1.3,5.4c1.7,2.6,4.5,4,8.6,4
			c2.6,0,5.7-0.7,9.2-2.2l-1.6,4.6C134.3,37.3,130.9,37.9,127,37.9z M125.2,14.4c-2,0-4.5,0.9-5.1,5l-0.1,0.9h9.9v-0.8
			C129.6,15.3,127.2,14.4,125.2,14.4z"/>
		<path class="st2" d="M151.4,37.9c-2.9,0-6.1-0.4-9.6-1.3l-0.9-4.5c3.2,1.7,6.2,2.5,9,2.5c4.5,0,5.4-1.8,5.4-3.4
			c0-0.9-0.4-1.7-1.3-2.2c-0.7-0.4-1.9-0.9-3.8-1.5c-3.4-1.1-5.8-2.3-7.2-3.6c-1.3-1.2-2-2.8-2-4.9c0-2.5,1-4.4,3-5.9
			c2.1-1.5,5-2.3,8.7-2.3c2.7,0,5.6,0.3,8.6,1v4c-2.1-1.2-4.3-1.8-6.6-1.8c-4,0-4.8,1.5-4.8,2.8c0,0.8,0.3,1.8,1.8,2.5
			c0.3,0.2,1.1,0.4,3.8,1.2c3,0.9,5.1,1.9,6.5,2.9c1.8,1.4,2.6,3.2,2.6,5.5c0,2.7-1.1,4.8-3.5,6.4C158.9,37.1,155.6,37.9,151.4,37.9
			z"/>
		<path class="st2" d="M179.5,37.9c-3.4,0-5.9-0.8-7.3-2.4c-1.1-1.2-1.7-3.2-1.7-6v-14H167v-2.6c0.6-0.1,1.2-0.2,1.8-0.4
			c0.8,0.4,2.8,1.3,5.4,1.3c2.3,0,4.5-0.7,6.4-2.2h5.7v4.7c-0.4-0.3-0.7-0.4-0.9-0.5c-0.5-0.2-1.3-0.3-2.4-0.3h-3.4v12.4
			c0,2.6,1.1,5.7,6.3,6.1l-1.9,3.6C182.3,37.8,180.8,37.9,179.5,37.9z"/>
		
			<linearGradient id="SVGID_1_" gradientUnits="userSpaceOnUse" x1="171.2199" y1="54.5984" x2="181.5614" y2="54.5984" gradientTransform="matrix(1 0 0 -1 0 61)">
			<stop  offset="0" style="stop-color:#EB8020"/>
			<stop  offset="1" style="stop-color:#FFE51F"/>
		</linearGradient>
		<path class="st3" d="M171.2,12.4l1.3-1c0,0-2-4.9,3.9-7.9c0.9-0.5,3.9-2.1,5.1-3.5c0,0.4,0.5,6-1.1,9.3c-0.6,1.3-2.1,3.6-6.6,3.5
			c0.3-0.2,5.7-4.6,6.5-9c-0.2,0.5-1.5,4.2-7.7,8.8C172.1,12.6,171.2,12.4,171.2,12.4z"/>
		
			<linearGradient id="SVGID_2_" gradientUnits="userSpaceOnUse" x1="172.7178" y1="52.1344" x2="163.8828" y2="56.3804" gradientTransform="matrix(1 0 0 -1 0 61)">
			<stop  offset="0" style="stop-color:#EB8020"/>
			<stop  offset="1" style="stop-color:#FFE51F"/>
		</linearGradient>
		<path class="st4" d="M166,2.1c-0.9,4.1,0,6.5,1.7,7.8c0.7,0.5,1.3,0.7,1.7,0.8c-0.1-2.3,0.1-3.2-2.4-6.4c2.9,2.6,3,3.6,3.5,5.8
			c0.1-0.3,0.2-0.6,0.3-1c0-0.1,0-0.2,0-0.3c0-0.1,0-0.2,0-0.2C171.2,6.4,169.9,4.2,166,2.1z"/>
		<g>
			<path class="st5" d="M192.5,10.2c-2.2,0-3.9,1.8-3.9,3.9c0,2.2,1.8,3.9,3.9,3.9s3.9-1.8,3.9-3.9
				C196.4,11.9,194.6,10.2,192.5,10.2z M192.5,17.6c-1.9,0-3.4-1.5-3.4-3.4s1.5-3.4,3.4-3.4s3.4,1.5,3.4,3.4
				C195.9,16.1,194.4,17.6,192.5,17.6z"/>
			<g>
				<path class="st5" d="M191.7,14.6v1.7H191V12h1.2c0.6,0,1,0.1,1.2,0.3c0.3,0.2,0.4,0.5,0.4,0.9c0,0.5-0.3,0.9-0.8,1.1l1.2,1.9
					h-0.8l-1-1.7L191.7,14.6L191.7,14.6z M191.7,14h0.5c0.3,0,0.6-0.1,0.7-0.2s0.2-0.3,0.2-0.5s-0.1-0.4-0.2-0.5
					c-0.2-0.1-0.4-0.2-0.7-0.2h-0.5V14z"/>
			</g>
		</g>
	</g>
	<g>
		<path class="st5" d="M0.1,50.7h3.6c0.9,0,1.6,0.2,2.1,0.7s0.7,1.1,0.7,1.8c0,0.7-0.2,1.3-0.7,1.8s-1.2,0.7-2.1,0.7H1.8v2.9H0
			L0.1,50.7L0.1,50.7z M1.9,54.5h1.4c0.5,0,0.9-0.1,1.1-0.3c0.3-0.2,0.4-0.5,0.4-1s-0.1-0.8-0.4-1c-0.3-0.2-0.7-0.3-1.1-0.3H1.9
			V54.5z"/>
		<path class="st5" d="M11.8,50.7h4.3c0.7,0,1.3,0.2,1.7,0.6c0.4,0.4,0.6,1,0.6,1.6c0,1-0.4,1.7-1.3,2l0,0c0.7,0.2,1.1,0.8,1.2,1.9
			c0,0,0,0.2,0,0.3c0,0.2,0,0.3,0,0.4s0,0.2,0,0.4c0,0.2,0.1,0.3,0.1,0.4s0.1,0.2,0.2,0.3h-1.8c-0.1-0.2-0.1-0.3-0.1-0.5
			s-0.1-0.5-0.1-0.8s0-0.5-0.1-0.6c-0.1-0.4-0.2-0.7-0.4-0.9c-0.2-0.2-0.5-0.3-1-0.3h-1.8v3.2h-1.8v-8H11.8z M13.6,54.3h1.9
			c0.4,0,0.7-0.1,0.9-0.3c0.2-0.2,0.3-0.5,0.3-0.9c0-0.7-0.4-1.1-1.2-1.1h-1.9C13.6,52,13.6,54.3,13.6,54.3z"/>
		<path class="st5" d="M24.1,50.7h6v1.5h-4.3v1.7h3.9v1.4h-3.9v2h4.3v1.5H24v-8.1H24.1z"/>
		<path class="st5" d="M35.5,50.7H38l1.9,5.5l0,0l1.8-5.5h2.5v8.1h-1.7v-5.7l0,0l-2,5.7h-1.4l-2-5.7l0,0v5.7h-1.7v-8.1H35.5z"/>
		<path class="st5" d="M49.4,50.7h1.8v8.1h-1.8V50.7z"/>
		<path class="st5" d="M63.4,55.7c0,1.1-0.3,1.9-0.9,2.4s-1.4,0.8-2.5,0.8s-2-0.3-2.5-0.8c-0.6-0.5-0.9-1.3-0.9-2.4v-5h1.8v5
			c0,0.5,0.1,1,0.3,1.3c0.2,0.3,0.7,0.5,1.3,0.5c0.6,0,1-0.1,1.3-0.4s0.4-0.7,0.4-1.3v-5h1.8v4.9H63.4z"/>
		<path class="st5" d="M68.7,50.7h2.5l1.9,5.5l0,0l1.8-5.5h2.5v8.1h-1.7v-5.7l0,0l-2,5.7h-1.4l-2-5.7l0,0v5.7h-1.6V50.7z"/>
		<path class="st5" d="M92.5,50.7h1.8l3.4,5.4l0,0v-5.4h1.7v8.1h-1.8l-3.4-5.4l0,0v5.4h-1.7V50.7z"/>
		<path class="st5" d="M111.3,55.7c0,1.1-0.3,1.9-0.9,2.4s-1.4,0.8-2.5,0.8s-2-0.3-2.5-0.8c-0.6-0.5-0.9-1.3-0.9-2.4v-5h1.8v5
			c0,0.5,0.1,1,0.3,1.3c0.2,0.3,0.7,0.5,1.3,0.5c0.6,0,1-0.1,1.3-0.4c0.2-0.3,0.4-0.7,0.4-1.3v-5h1.8v4.9H111.3z"/>
		<path class="st5" d="M118.9,52.2h-2.4v-1.5h6.6v1.5h-2.4v6.6h-1.8V52.2z"/>
		<path class="st5" d="M128.2,50.7h4.3c0.7,0,1.3,0.2,1.7,0.6s0.6,1,0.6,1.6c0,1-0.4,1.7-1.3,2l0,0c0.7,0.2,1.1,0.8,1.2,1.9
			c0,0,0,0.2,0,0.3c0,0.2,0,0.3,0,0.4s0,0.2,0,0.4c0,0.2,0.1,0.3,0.1,0.4s0.1,0.2,0.2,0.3h-1.8c-0.1-0.2-0.1-0.3-0.1-0.5
			s-0.1-0.5-0.1-0.8s0-0.5-0.1-0.6c-0.1-0.4-0.2-0.7-0.4-0.9c-0.2-0.2-0.5-0.3-1-0.3h-1.8v3.2h-1.8v-8H128.2z M129.9,54.3h1.9
			c0.4,0,0.7-0.1,0.9-0.3s0.3-0.5,0.3-0.9c0-0.7-0.4-1.1-1.2-1.1h-1.9V54.3z"/>
		<path class="st5" d="M140.2,50.7h1.8v8.1h-1.8V50.7z"/>
		<path class="st5" d="M149.6,52.2h-2.4v-1.5h6.6v1.5h-2.4v6.6h-1.8L149.6,52.2L149.6,52.2z"/>
		<path class="st5" d="M158.9,50.7h1.8v8.1h-1.8V50.7z"/>
		<path class="st5" d="M165.8,54.8c0-1.2,0.4-2.2,1.1-3c0.7-0.8,1.7-1.2,2.9-1.2s2.2,0.4,2.9,1.2c0.7,0.8,1.1,1.8,1.1,3
			s-0.4,2.2-1.1,3c-0.7,0.8-1.7,1.2-2.9,1.2s-2.2-0.4-2.9-1.2C166.1,57,165.8,56,165.8,54.8z M167.5,54.8c0,0.8,0.2,1.4,0.5,1.9
			c0.4,0.5,0.9,0.8,1.6,0.8s1.3-0.3,1.6-0.8c0.4-0.5,0.5-1.2,0.5-1.9c0-0.5-0.1-0.9-0.2-1.3s-0.4-0.7-0.7-1s-0.8-0.4-1.3-0.4
			s-0.9,0.1-1.3,0.4s-0.6,0.6-0.7,1C167.6,53.8,167.5,54.3,167.5,54.8z"/>
		<path class="st5" d="M178.8,50.7h1.8l3.4,5.4l0,0v-5.4h1.7v8.1h-1.8l-3.4-5.4l0,0v5.4h-1.7V50.7z"/>
	</g>
</g>
</svg>
